<svg width="40" height="44" viewBox="0 0 40 44" fill="none" xmlns="http://www.w3.org/2000/svg">
<path fill-rule="evenodd" clip-rule="evenodd" d="M27.3889 7.05669C26.9499 6.8789 26.4652 6.83825 26.0016 6.94033C25.5379 7.0424 25.1179 7.2822 24.7993 7.6268L24.7964 7.62992L23.2024 9.33898C23.2017 9.3398 23.2009 9.34061 23.2002 9.34143C22.7963 9.77888 22.3029 10.1287 21.7521 10.3683C21.2001 10.6083 20.6028 10.7324 19.9987 10.7324C19.3946 10.7324 18.7972 10.6083 18.2453 10.3683C17.6938 10.1285 17.2001 9.77817 16.7959 9.34009C16.7956 9.33972 16.7952 9.33935 16.7949 9.33898L15.2104 7.62923C15.2102 7.62897 15.2099 7.62872 15.2097 7.62847C14.891 7.28636 14.472 7.04858 14.0099 6.94757C13.5475 6.84648 13.0645 6.88727 12.6266 7.06438C12.1888 7.24148 11.8176 7.54628 11.5636 7.93717C11.3097 8.32795 11.1853 8.78575 11.2075 9.24814C11.2075 9.24827 11.2075 9.24801 11.2075 9.24814L11.3205 11.5574C11.3523 12.1468 11.2572 12.7361 11.0412 13.2873C10.8249 13.8394 10.4921 14.3409 10.0645 14.7591C9.63689 15.1774 9.12405 15.5031 8.55926 15.715C7.99471 15.9269 7.39088 16.0204 6.78696 15.9895C6.78671 15.9894 6.78721 15.9895 6.78696 15.9895L4.42629 15.8725C4.42584 15.8724 4.42539 15.8724 4.42494 15.8724C3.95201 15.8506 3.48369 15.9719 3.08389 16.2198C2.68371 16.4679 2.37171 16.8307 2.19054 17.2587C2.00937 17.6866 1.96788 18.1588 2.07172 18.6107C2.17557 19.0625 2.4197 19.472 2.77073 19.7832L4.52748 21.3416C4.52782 21.3419 4.52816 21.3422 4.5285 21.3425C4.97614 21.7378 5.334 22.2205 5.57899 22.7594C5.82417 23.2986 5.95085 23.8821 5.95085 24.4722C5.95085 25.0623 5.82417 25.6458 5.57899 26.1851C5.33381 26.7243 4.97559 27.2073 4.52748 27.6029L2.76992 29.1537C2.76986 29.1537 2.76997 29.1537 2.76992 29.1537C2.41783 29.4652 2.17286 29.8756 2.06892 30.3285C1.96496 30.7814 2.00703 31.2547 2.18933 31.6833C2.37163 32.1119 2.68524 32.4749 3.08709 32.7224C3.48894 32.9699 3.95934 33.0898 4.43371 33.0656L6.79917 32.9484C7.40221 32.918 8.00503 33.0118 8.56865 33.2235C9.13226 33.4352 9.64412 33.7602 10.0711 34.1774C10.4981 34.5947 10.8306 35.0949 11.0473 35.6456C11.264 36.1964 11.3599 36.7855 11.3289 37.3747L11.2075 39.68C11.2075 39.6808 11.2075 39.6817 11.2074 39.6825C11.1863 40.144 11.3111 40.6006 11.5648 40.9904C11.819 41.3809 12.1902 41.6854 12.6279 41.8622C13.0656 42.039 13.5484 42.0796 14.0106 41.9784C14.4726 41.8773 14.8915 41.6395 15.2101 41.2974C15.2102 41.2972 15.21 41.2975 15.2101 41.2974L16.8041 39.5815C16.8044 39.5812 16.8047 39.5809 16.805 39.5806C17.2094 39.1431 17.7032 38.7934 18.2546 38.554C18.8063 38.3144 19.4034 38.1906 20.0071 38.1906C20.6109 38.1906 21.2079 38.3144 21.7596 38.554C22.3112 38.7935 22.8052 39.1434 23.2097 39.5811L24.7949 41.2947C24.7955 41.2954 24.7962 41.2961 24.7969 41.2968C25.1158 41.6365 25.5339 41.8721 25.9945 41.972C26.456 42.072 26.9379 42.0308 27.3746 41.8539C27.8113 41.6771 28.1817 41.3731 28.4355 40.9833C28.6888 40.5943 28.8137 40.1386 28.7932 39.678C28.7932 39.6772 28.7932 39.6763 28.7931 39.6754L28.6735 37.3714C28.6426 36.7824 28.7385 36.1929 28.9551 35.6423C29.1718 35.0916 29.5043 34.5914 29.9313 34.1741C30.3583 33.7569 30.8701 33.4319 31.4337 33.2202C31.9971 33.0086 32.5997 32.9148 33.2025 32.945M33.2025 32.945L35.5672 33.0622C36.0419 33.0858 36.5126 32.9653 36.9144 32.7172C37.3162 32.4691 37.6295 32.1056 37.8115 31.6766C37.9934 31.2475 38.035 30.7739 37.9306 30.3209C37.8261 29.8678 37.5807 29.4574 37.2281 29.146L35.4686 27.595C35.0205 27.1995 34.6618 26.7161 34.4166 26.1768C34.1715 25.6376 34.0448 25.054 34.0448 24.464C34.0448 23.8739 34.1715 23.2904 34.4166 22.7511C34.6618 22.2119 35.02 21.7289 35.4682 21.3333L37.228 19.782C37.2281 19.7818 37.2278 19.7822 37.228 19.782C37.58 19.4709 37.8256 19.0605 37.9301 18.608C38.0346 18.1553 37.9933 17.6821 37.8118 17.2532C37.6304 16.8243 37.3176 16.4608 36.9164 16.2124C36.5155 15.9642 36.0459 15.8431 35.5719 15.8657C35.5716 15.8658 35.5712 15.8658 35.5709 15.8658L33.2076 15.9829L33.2057 15.983C32.6039 16.0117 32.0027 15.9169 31.4407 15.7048C30.8787 15.4926 30.3685 15.1678 29.9428 14.7512C29.5171 14.3346 29.1854 13.8355 28.9691 13.286C28.7528 12.7366 28.6567 12.1489 28.687 11.5609L28.8069 9.24976C28.8311 8.78593 28.7078 8.32594 28.4539 7.93332C28.2 7.5407 27.828 7.23448 27.3889 7.05669M25.5591 5.0212C26.4282 4.82987 27.3366 4.90606 28.1596 5.23931C28.9826 5.57256 29.6799 6.14653 30.1558 6.88246C30.6316 7.61833 30.8627 8.48006 30.8175 9.3494M30.8175 9.3494L30.6976 11.6597C30.6976 11.6599 30.6976 11.6596 30.6976 11.6597C30.6815 11.9732 30.7328 12.2869 30.8481 12.5798C30.9634 12.8728 31.1403 13.139 31.3673 13.3612C31.5944 13.5833 31.8665 13.7566 32.1662 13.8697C32.4656 13.9828 32.7858 14.0333 33.1064 14.0182C33.1067 14.0182 33.1071 14.0181 33.1075 14.0181L35.4703 13.901L35.4717 13.901C36.3609 13.8581 37.2418 14.085 37.9938 14.5506C38.7458 15.0162 39.3321 15.6976 39.6722 16.5015C40.0124 17.3054 40.0898 18.1924 39.8939 19.041C39.6979 19.8896 39.2383 20.6582 38.5778 21.2415L36.8176 22.7932C36.8175 22.7932 36.8176 22.7931 36.8176 22.7932C36.5785 23.0043 36.3872 23.2621 36.2564 23.5498C36.1255 23.8376 36.0579 24.149 36.0579 24.464C36.0579 24.7789 36.1255 25.0903 36.2564 25.3781C36.3872 25.6659 36.5784 25.9237 36.8176 26.1348L38.5771 27.6859C39.2381 28.2695 39.6987 29.0392 39.8945 29.8885C40.0903 30.7377 40.0123 31.6254 39.6713 32.4296C39.3302 33.2339 38.7429 33.9152 37.9898 34.3803C37.2367 34.8453 36.3549 35.0711 35.4652 35.0269C35.4652 35.0269 35.4653 35.0269 35.4652 35.0269L33.1005 34.9097C32.7789 34.8936 32.4567 34.9435 32.1561 35.0564C31.8555 35.1693 31.5825 35.3427 31.3548 35.5652C31.1271 35.7877 30.9497 36.0545 30.8342 36.3482C30.7186 36.6419 30.6675 36.9561 30.684 37.2704L30.8043 39.5879C30.8437 40.4529 30.6097 41.3089 30.134 42.0394C29.6583 42.77 28.964 43.3397 28.1454 43.6712C27.3268 44.0028 26.4236 44.08 25.5585 43.8925C24.6934 43.705 23.9084 43.2618 23.31 42.6231L23.3057 42.6185L21.7163 40.9003C21.5004 40.6667 21.2364 40.4795 20.9421 40.3517C20.6477 40.2239 20.3292 40.1578 20.0071 40.1578C19.685 40.1578 19.3665 40.2239 19.0721 40.3517C18.7778 40.4795 18.5141 40.6663 18.2983 40.8999L18.2965 40.9018L16.6996 42.6208C16.1022 43.2625 15.3168 43.7085 14.4505 43.8981C13.5842 44.0877 12.6792 44.0116 11.8588 43.6802C11.0384 43.3488 10.3425 42.7782 9.86611 42.0462C9.38968 41.3142 9.15585 40.4565 9.19649 39.5899L9.19677 39.5844L9.31838 37.2737C9.33492 36.9594 9.28376 36.6452 9.16821 36.3515C9.05266 36.0578 8.87529 35.791 8.64758 35.5685C8.41986 35.346 8.14688 35.1726 7.84629 35.0597C7.5457 34.9468 7.2242 34.8968 6.90259 34.913L4.53864 35.0301C3.64919 35.0755 2.76718 34.8507 2.01368 34.3867C1.26019 33.9226 0.672171 33.242 0.330346 32.4383C-0.0114788 31.6346 -0.0903471 30.7472 0.104569 29.898C0.299485 29.0487 0.758629 28.2793 1.41897 27.6952L3.17807 26.143C3.1781 26.143 3.17803 26.143 3.17807 26.143C3.41717 25.9319 3.60842 25.6741 3.73925 25.3864C3.8701 25.0986 3.9377 24.7871 3.9377 24.4722C3.9377 24.1573 3.8701 23.8459 3.73925 23.5581C3.6084 23.2703 3.41722 23.0125 3.17807 22.8014L3.17621 22.7998L1.41816 21.2403C1.41806 21.2402 1.41825 21.2404 1.41816 21.2403C0.760108 20.6569 0.30219 19.8889 0.107498 19.0417C-0.0872209 18.1945 -0.00941387 17.3091 0.330284 16.5067C0.669981 15.7043 1.25499 15.0239 2.00534 14.5587C2.7557 14.0935 3.63477 13.866 4.52241 13.9075L4.52533 13.9076L6.89191 14.0249C7.21413 14.0415 7.5363 13.9916 7.83752 13.8786C8.13873 13.7655 8.41224 13.5918 8.64029 13.3688C8.86833 13.1457 9.04581 12.8783 9.1612 12.5838C9.27659 12.2894 9.3273 11.9745 9.31005 11.6596L9.30974 11.654L9.19659 9.34162C9.15496 8.47467 9.38805 7.6154 9.86412 6.88271C10.3402 6.15002 11.036 5.57872 11.8566 5.24675C12.6773 4.91478 13.5827 4.83832 14.4494 5.0278C15.3162 5.21728 16.102 5.66348 16.6996 6.3055L16.7011 6.30711L18.2906 8.02227C18.5062 8.25611 18.7696 8.44307 19.0639 8.57105C19.3581 8.69902 19.6766 8.76515 19.9987 8.76515C20.3207 8.76515 20.6392 8.69902 20.9335 8.57105C21.2277 8.44307 21.4912 8.25611 21.7067 8.02228L21.7106 8.01806L23.3056 6.30793C23.3061 6.30737 23.3066 6.30681 23.3071 6.30625C23.9042 5.66123 24.6908 5.21237 25.5591 5.0212" fill="#121213"/>
<path fill-rule="evenodd" clip-rule="evenodd" d="M19.9986 18.0211C16.3567 18.0211 13.4043 20.9061 13.4043 24.4649C13.4043 28.0237 16.3567 30.9087 19.9986 30.9087C23.6405 30.9087 26.5929 28.0237 26.5929 24.4649C26.5929 20.9061 23.6405 18.0211 19.9986 18.0211ZM11.3912 24.4649C11.3912 19.8196 15.2449 16.0538 19.9986 16.0538C24.7524 16.0538 28.606 19.8196 28.606 24.4649C28.606 29.1102 24.7524 32.876 19.9986 32.876C15.2449 32.876 11.3912 29.1102 11.3912 24.4649Z" fill="#121213"/>
</svg>
