<svg width="40" height="34" viewBox="0 0 40 34" fill="none" xmlns="http://www.w3.org/2000/svg">
<path fill-rule="evenodd" clip-rule="evenodd" d="M27.7788 23.8052L27.7822 23.8052C30.453 23.8092 33.0569 24.6599 35.2349 26.2402C37.4129 27.8205 39.0578 30.0524 39.9428 32.6284C40.1272 33.1652 39.851 33.7531 39.3259 33.9416C38.8009 34.1301 38.2257 33.8478 38.0413 33.311C37.2945 31.1372 35.9064 29.2537 34.0684 27.9202C32.2309 26.587 30.0342 25.869 27.7809 25.8653C25.5302 25.87 23.3362 26.5885 21.5017 27.9216C19.6668 29.2551 18.2819 31.1378 17.5382 33.31C17.3543 33.847 16.7794 34.1299 16.2542 33.942C15.7289 33.754 15.4521 33.1664 15.636 32.6294C16.5175 30.0547 18.1591 27.8231 20.334 26.2425C22.509 24.662 25.1102 23.8103 27.7788 23.8052ZM27.7807 24.8351L27.7807 24.8353L27.7807 24.8351Z" fill="#121213"/>
<path fill-rule="evenodd" clip-rule="evenodd" d="M27.763 8.24057C24.2958 8.24057 21.4851 11.1138 21.4851 14.6581C21.4851 18.2023 24.2958 21.0755 27.763 21.0755C31.2302 21.0755 34.041 18.2023 34.041 14.6581C34.041 11.1138 31.2302 8.24057 27.763 8.24057ZM19.4698 14.6581C19.4698 9.97599 23.1828 6.18042 27.763 6.18042C32.3433 6.18042 36.0563 9.97599 36.0563 14.6581C36.0563 19.3401 32.3433 23.1357 27.763 23.1357C23.1828 23.1357 19.4698 19.3401 19.4698 14.6581Z" fill="#121213"/>
<path fill-rule="evenodd" clip-rule="evenodd" d="M8.48803 15.0194C6.11466 15.0194 4.19066 16.9861 4.19066 19.4123C4.19066 21.8384 6.11466 23.8052 8.48803 23.8052C10.8614 23.8052 12.7854 21.8384 12.7854 19.4123C12.7854 16.9861 10.8614 15.0194 8.48803 15.0194ZM2.17531 19.4123C2.17531 15.8484 5.00161 12.9592 8.48803 12.9592C11.9745 12.9592 14.8008 15.8484 14.8008 19.4123C14.8008 22.9762 11.9745 25.8653 8.48803 25.8653C5.00161 25.8653 2.17531 22.9762 2.17531 19.4123Z" fill="#121213"/>
<path fill-rule="evenodd" clip-rule="evenodd" d="M8.48731 26.5166C10.3989 26.5151 12.2599 27.1445 13.7935 28.311C14.2399 28.6507 14.3325 29.296 14.0003 29.7524C13.668 30.2088 13.0368 30.3034 12.5903 29.9638C11.4052 29.0623 9.96709 28.5758 8.48986 28.5768C7.05635 28.5811 5.65923 29.0385 4.48993 29.8862C3.32034 30.7341 2.43595 31.9311 1.958 33.313C1.77249 33.8494 1.19676 34.1305 0.672062 33.9408C0.147366 33.7512 -0.127602 33.1627 0.0579031 32.6263C0.674453 30.8437 1.8153 29.2996 3.32405 28.2057C4.8328 27.1119 6.63558 26.5219 8.48524 26.5166L8.48731 26.5166Z" fill="#121213"/>
</svg>
