<svg width="48" height="48" viewBox="0 0 48 48" fill="none" xmlns="http://www.w3.org/2000/svg">
<rect width="48" height="48" rx="10.6667" fill="#EEF3FF"/>
<path d="M39.52 16.8126C39.5198 16.2259 39.3943 15.7075 39.1406 15.2626C38.8913 14.8251 38.5181 14.4584 38.0174 14.1685C33.8847 11.7856 29.748 9.40992 25.6166 7.02455C24.5028 6.38153 23.4229 6.40497 22.3174 7.05722C20.6725 8.02733 12.4368 12.7457 9.98269 14.1672C8.97201 14.7522 8.48022 15.6477 8.47997 16.8115C8.47839 21.6037 8.47997 26.3959 8.47839 31.1882C8.47864 31.762 8.59876 32.2703 8.84132 32.7085C9.09068 33.1593 9.46915 33.5361 9.98135 33.8325C12.4356 35.254 20.6723 39.972 22.3169 40.9424C23.4229 41.595 24.5028 41.6183 25.617 40.975C29.7485 38.5896 33.8855 36.214 38.0188 33.8311C38.531 33.5347 38.9094 33.1577 39.1588 32.7073C39.401 32.2691 39.5214 31.7608 39.5216 31.1869C39.5216 31.1869 39.5216 21.605 39.52 16.8126" fill="#3580C8"/>
<path d="M28.4732 26.5168C27.5928 28.0781 25.9199 29.1332 24 29.1332C22.0919 29.1332 20.4284 28.0913 19.5436 26.5466C19.0991 25.7715 18.8657 24.8933 18.8666 23.9998C18.8666 21.1648 21.165 18.8665 24 18.8665C25.8959 18.8665 27.5505 19.8954 28.4398 21.4243L32.9266 18.8406C31.1432 15.7621 27.8136 13.6909 24 13.6909C18.3064 13.6909 13.691 18.3064 13.691 23.9998C13.691 25.8676 14.1879 27.6192 15.0564 29.1301C16.8353 32.2249 20.1743 34.3088 24 34.3088C27.8327 34.3088 31.177 32.2165 32.9534 29.1126L28.4732 26.5168Z" fill="white"/>
</svg>
