<?xml version="1.0" encoding="UTF-8" standalone="no"?>
<!DOCTYPE svg PUBLIC "-//W3C//DTD SVG 1.1//EN" "http://www.w3.org/Graphics/SVG/1.1/DTD/svg11.dtd">
<svg width="100%" height="100%" viewBox="0 0 3100 772" version="1.1" xmlns="http://www.w3.org/2000/svg" xmlns:xlink="http://www.w3.org/1999/xlink" xml:space="preserve" xmlns:serif="http://www.serif.com/" style="fill-rule:evenodd;clip-rule:evenodd;stroke-miterlimit:2;">
    <g transform="matrix(8.10763,0,0,8.10763,69,81.0763)">
        <g>
            <g transform="matrix(3.87718,0,0,3.87718,-10.7569,-8.39571)">
                <g id="SvgjsG1022">
                    <path d="M19.118,6L13.118,3C12.417,2.651 11.583,2.651 10.882,3L4.882,6C4.029,6.426 3.5,7.283 3.5,8.237L3.5,15.764C3.5,16.717 4.029,17.574 4.882,18L10.882,21C11.232,21.175 11.616,21.262 12,21.262C12.384,21.262 12.768,21.175 13.118,21L19.118,18C19.971,17.574 20.5,16.717 20.5,15.764L20.5,8.237C20.5,7.283 19.971,6.426 19.118,6L19.118,6ZM19.5,15.764C19.5,16.336 19.183,16.85 18.671,17.106L12.671,20.106C12.251,20.315 11.749,20.315 11.329,20.106L5.329,17.106C4.817,16.85 4.5,16.336 4.5,15.764L4.5,8.237C4.5,8.099 4.52,7.966 4.555,7.837L6.671,8.895C7.183,9.151 7.5,9.664 7.5,10.237L7.5,12C7.5,12.277 7.724,12.5 8,12.5C8.276,12.5 8.5,12.277 8.5,12L8.5,10.237C8.5,9.283 7.971,8.426 7.118,8L5.151,7.017C5.21,6.976 5.263,6.928 5.329,6.895L11.329,3.895C11.539,3.79 11.77,3.738 12,3.738C12.23,3.738 12.461,3.79 12.671,3.895L18.671,6.895C18.737,6.928 18.79,6.976 18.849,7.017L14.882,9C14.029,9.426 13.5,10.283 13.5,11.237L13.5,15C13.5,15.276 13.275,15.5 13,15.5C12.725,15.5 12.5,15.276 12.5,15L12.5,12.237C12.5,11.283 11.971,10.426 11.118,10L9.902,9.392C9.96,9.666 10,9.947 10,10.237L10,10.559L10.671,10.895C11.183,11.151 11.5,11.664 11.5,12.237L11.5,15C11.5,15.827 12.173,16.5 13,16.5C13.827,16.5 14.5,15.827 14.5,15L14.5,11.237C14.5,10.664 14.817,10.151 15.329,9.895L19.445,7.837C19.48,7.965 19.5,8.099 19.5,8.237L19.5,15.764ZM8.5,14L8.5,15.365C8.5,15.641 8.276,15.895 8,15.895C7.724,15.895 7.5,15.641 7.5,15.365L7.5,14C7.5,13.724 7.724,13.5 8,13.5C8.276,13.5 8.5,13.724 8.5,14Z" style="fill:white;fill-rule:nonzero;stroke:white;stroke-width:0.13px;"/>
                </g>
            </g>
            <g transform="matrix(0.123341,0,0,0.123341,-11.2802,-9.83723)">
                <path d="M919.13,540.805C986.37,540.805 1030.24,504.725 1030.24,450.195C1030.24,384.595 973.865,367.99 929.38,355.28C900.065,347.08 875.465,340.315 875.465,320.635C875.465,302.8 892.275,291.935 916.465,291.935C943.32,291.935 959.105,304.235 968.535,331.295L1029.42,317.355C1016.92,258.93 963.82,236.79 912.16,236.79C850.045,236.79 806.995,271.64 806.995,324.53C806.995,384.595 858.86,401.2 901.91,414.525C933.07,424.16 959.925,432.565 959.925,455.115C959.925,473.975 945.575,485.455 920.155,485.455C891.865,485.455 871.775,471.31 863.37,437.28L796.335,451.425C804.74,508.62 855.58,540.805 919.13,540.805Z" style="fill:white;fill-rule:nonzero;stroke:white;stroke-width:1px;stroke-linejoin:round;"/>
                <path d="M1196.29,534.86L1196.29,483.61L1177.63,483.61C1162.46,483.61 1153.04,475.82 1153.04,456.96L1153.04,374.96L1196.29,374.96L1196.29,325.555L1153.04,325.555L1153.04,258.93L1096.05,258.93L1096.05,284.555C1096.05,317.765 1082.11,325.555 1061.4,325.555L1047.46,325.555L1047.46,374.96L1088.05,374.96L1088.05,466.595C1088.05,510.055 1111.83,534.86 1154.67,534.86L1196.29,534.86Z" style="fill:white;fill-rule:nonzero;stroke:white;stroke-width:1px;stroke-linejoin:round;"/>
                <path d="M1421.59,406.325C1421.59,386.235 1419.33,375.37 1415.23,365.735C1402.93,336.625 1373.82,321.455 1326.88,321.455C1276.24,321.455 1235.24,342.98 1222.33,386.645L1284.44,396.075C1290.8,375.985 1307.81,367.17 1329.13,367.17C1344.71,367.17 1356.6,373.525 1356.6,388.49C1356.6,398.33 1347.58,401.2 1336.51,403.865L1300.63,412.475C1265.58,420.47 1221.51,433.795 1221.51,481.765C1221.51,524.815 1257.79,538.96 1290.59,538.96C1316.21,538.96 1344.71,529.94 1359.06,510.055L1361.73,534.86L1425.89,534.86L1425.89,529.12C1421.79,520.1 1421.59,509.645 1421.59,497.55L1421.59,406.325ZM1310.07,494.475C1296.54,494.475 1286.29,487.915 1286.29,474.59C1286.29,460.24 1299.61,454.705 1310.88,452.245L1360.7,438.1C1357.83,481.765 1333.03,494.475 1310.07,494.475Z" style="fill:white;fill-rule:nonzero;stroke:white;stroke-width:1px;stroke-linejoin:round;"/>
                <path d="M1591.53,321.455C1565.09,321.455 1541.72,330.475 1529.41,347.285L1529.41,227.36L1464.63,227.36L1464.63,534.86L1525.93,534.86L1528.18,512.31C1540.08,529.94 1564.27,538.96 1591.53,538.96C1647.5,538.96 1693.62,499.6 1693.62,430.72C1693.62,361.84 1647.5,321.455 1591.53,321.455ZM1577.38,485.455C1548.48,485.455 1526.55,465.775 1526.55,430.72C1526.55,395.665 1548.48,374.755 1577.38,374.755C1606.5,374.755 1628.63,395.665 1628.63,430.72C1628.63,465.775 1606.5,485.455 1577.38,485.455Z" style="fill:white;fill-rule:nonzero;stroke:white;stroke-width:1px;stroke-linejoin:round;"/>
                <rect x="1727.24" y="227.36" width="64.985" height="307.5" style="fill:white;fill-rule:nonzero;stroke:white;stroke-width:1px;stroke-linejoin:round;"/>
                <path d="M2045.19,428.26C2044.79,354.255 1999.07,321.455 1938.39,321.455C1871.56,321.455 1825.85,361.84 1825.85,430.31C1825.85,498.575 1870.12,538.96 1940.64,538.96C1989.64,538.96 2028.38,514.565 2041.71,470.695L1982.06,462.905C1974.88,480.125 1960.12,488.325 1940.24,488.325C1914,488.325 1893.09,472.95 1890.22,443.225L2044.38,443.225L2045.19,428.26ZM1938.8,369.015C1959.91,369.015 1976.52,380.905 1980.83,401.61L1892.27,401.61C1898.21,379.47 1914.4,369.015 1938.8,369.015Z" style="fill:white;fill-rule:nonzero;stroke:white;stroke-width:1px;stroke-linejoin:round;"/>
                <path d="M2246.3,378.445C2269.47,367.58 2281.97,346.67 2281.97,317.355C2281.97,268.155 2246.71,242.735 2179.68,242.735L2082.3,242.735L2082.3,534.86L2190.74,534.86C2221.49,534.86 2300.22,531.58 2300.22,451.835C2300.22,411.04 2279.92,389.31 2246.3,378.445ZM2214.32,328.835C2214.32,349.13 2202.43,359.175 2178.24,359.175L2149.95,359.175L2149.95,298.29L2178.24,298.29C2202.02,298.29 2214.32,308.54 2214.32,328.835ZM2149.95,477.46L2149.95,410.425L2191.77,410.425C2219.86,410.425 2232.57,420.88 2232.57,444.045C2232.57,467.21 2219.86,477.46 2191.77,477.46L2149.95,477.46Z" style="fill:white;fill-rule:nonzero;stroke:white;stroke-width:1px;stroke-linejoin:round;"/>
                <path d="M2479.18,437.075C2478.77,476.025 2456.84,487.3 2433.26,487.3C2413.17,487.3 2396.77,477.665 2396.77,452.245L2396.77,325.555L2331.99,325.555L2331.99,465.98C2331.99,511.9 2358.85,538.96 2412.55,538.96C2441.46,538.96 2465.03,528.505 2480.2,510.67L2482.87,534.86L2544.16,534.86L2544.16,325.555L2479.18,325.555L2479.18,437.075Z" style="fill:white;fill-rule:nonzero;stroke:white;stroke-width:1px;stroke-linejoin:round;"/>
                <path d="M2620.22,299.315C2639.7,299.315 2656.1,283.325 2656.1,263.03C2656.1,243.145 2639.7,227.155 2620.22,227.155C2599.93,227.155 2583.53,243.145 2583.53,263.03C2583.53,283.325 2599.93,299.315 2620.22,299.315ZM2652.2,534.86L2652.2,325.555L2587.22,325.555L2587.22,534.86L2652.2,534.86Z" style="fill:white;fill-rule:nonzero;stroke:white;stroke-width:1px;stroke-linejoin:round;"/>
                <rect x="2694.84" y="227.36" width="64.985" height="307.5" style="fill:white;fill-rule:nonzero;stroke:white;stroke-width:1px;stroke-linejoin:round;"/>
                <path d="M2957.65,347.285C2945.35,330.475 2921.98,321.455 2895.53,321.455C2839.57,321.455 2793.45,361.84 2793.45,430.72C2793.45,499.6 2839.57,538.96 2895.53,538.96C2922.8,538.96 2946.99,529.94 2958.88,512.31L2961.14,534.86L3022.43,534.86L3022.43,227.36L2957.65,227.36L2957.65,347.285ZM2909.68,485.455C2880.57,485.455 2858.43,465.775 2858.43,430.72C2858.43,395.665 2880.57,374.755 2909.68,374.755C2938.59,374.755 2960.52,395.665 2960.52,430.72C2960.52,465.775 2938.59,485.455 2909.68,485.455Z" style="fill:white;fill-rule:nonzero;stroke:white;stroke-width:1px;stroke-linejoin:round;"/>
            </g>
        </g>
    </g>
</svg>
