<?xml version="1.0" encoding="UTF-8" standalone="no"?>
<!DOCTYPE svg PUBLIC "-//W3C//DTD SVG 1.1//EN" "http://www.w3.org/Graphics/SVG/1.1/DTD/svg11.dtd">
<svg width="100%" height="100%" viewBox="0 0 3100 772" version="1.1" xmlns="http://www.w3.org/2000/svg" xmlns:xlink="http://www.w3.org/1999/xlink" xml:space="preserve" xmlns:serif="http://www.serif.com/" style="fill-rule:evenodd;clip-rule:evenodd;stroke-miterlimit:2;">
    <g transform="matrix(8.10763,0,0,8.10763,69,81.0763)">
        <g>
            <g transform="matrix(3.87718,0,0,3.87718,-10.7569,-8.39571)">
                <g id="SvgjsG1022">
                    <path d="M19.118,6L13.118,3C12.417,2.651 11.583,2.651 10.882,3L4.882,6C4.029,6.426 3.5,7.283 3.5,8.237L3.5,15.764C3.5,16.717 4.029,17.574 4.882,18L10.882,21C11.232,21.175 11.616,21.262 12,21.262C12.384,21.262 12.768,21.175 13.118,21L19.118,18C19.971,17.574 20.5,16.717 20.5,15.764L20.5,8.237C20.5,7.283 19.971,6.426 19.118,6L19.118,6ZM19.5,15.764C19.5,16.336 19.183,16.85 18.671,17.106L12.671,20.106C12.251,20.315 11.749,20.315 11.329,20.106L5.329,17.106C4.817,16.85 4.5,16.336 4.5,15.764L4.5,8.237C4.5,8.099 4.52,7.966 4.555,7.837L6.671,8.895C7.183,9.151 7.5,9.664 7.5,10.237L7.5,12C7.5,12.277 7.724,12.5 8,12.5C8.276,12.5 8.5,12.277 8.5,12L8.5,10.237C8.5,9.283 7.971,8.426 7.118,8L5.151,7.017C5.21,6.976 5.263,6.928 5.329,6.895L11.329,3.895C11.539,3.79 11.77,3.738 12,3.738C12.23,3.738 12.461,3.79 12.671,3.895L18.671,6.895C18.737,6.928 18.79,6.976 18.849,7.017L14.882,9C14.029,9.426 13.5,10.283 13.5,11.237L13.5,15C13.5,15.276 13.275,15.5 13,15.5C12.725,15.5 12.5,15.276 12.5,15L12.5,12.237C12.5,11.283 11.971,10.426 11.118,10L9.902,9.392C9.96,9.666 10,9.947 10,10.237L10,10.559L10.671,10.895C11.183,11.151 11.5,11.664 11.5,12.237L11.5,15C11.5,15.827 12.173,16.5 13,16.5C13.827,16.5 14.5,15.827 14.5,15L14.5,11.237C14.5,10.664 14.817,10.151 15.329,9.895L19.445,7.837C19.48,7.965 19.5,8.099 19.5,8.237L19.5,15.764ZM8.5,14L8.5,15.365C8.5,15.641 8.276,15.895 8,15.895C7.724,15.895 7.5,15.641 7.5,15.365L7.5,14C7.5,13.724 7.724,13.5 8,13.5C8.276,13.5 8.5,13.724 8.5,14Z" style="fill-rule:nonzero;stroke:black;stroke-width:0.13px;"/>
                </g>
            </g>
            <g transform="matrix(0.123341,0,0,0.123341,-11.2802,-9.83723)">
                <g transform="matrix(410,0,0,410,793.465,534.86)">
                    <path d="M0.307,0.015C0.471,0.015 0.578,-0.074 0.578,-0.207C0.578,-0.367 0.44,-0.407 0.332,-0.438C0.26,-0.458 0.2,-0.475 0.2,-0.523C0.2,-0.566 0.241,-0.593 0.3,-0.593C0.366,-0.593 0.404,-0.563 0.427,-0.497L0.576,-0.531C0.545,-0.673 0.416,-0.727 0.29,-0.727C0.138,-0.727 0.033,-0.642 0.033,-0.513C0.033,-0.367 0.16,-0.326 0.265,-0.294C0.341,-0.27 0.406,-0.25 0.406,-0.195C0.406,-0.149 0.371,-0.121 0.309,-0.121C0.24,-0.121 0.191,-0.155 0.171,-0.238L0.007,-0.204C0.028,-0.064 0.152,0.015 0.307,0.015Z" style="fill-rule:nonzero;"/>
                </g>
                <g transform="matrix(410,0,0,410,1040.49,534.86)">
                    <path d="M0.38,-0L0.38,-0.125L0.335,-0.125C0.298,-0.125 0.275,-0.144 0.275,-0.19L0.275,-0.39L0.38,-0.39L0.38,-0.511L0.275,-0.511L0.275,-0.673L0.136,-0.673L0.136,-0.611C0.136,-0.53 0.102,-0.511 0.051,-0.511L0.017,-0.511L0.017,-0.39L0.116,-0.39L0.116,-0.167C0.116,-0.061 0.174,-0 0.279,-0L0.38,-0Z" style="fill-rule:nonzero;"/>
                </g>
                <g transform="matrix(410,0,0,410,1207.36,534.86)">
                    <path d="M0.523,-0.314C0.523,-0.363 0.517,-0.389 0.507,-0.413C0.477,-0.484 0.406,-0.521 0.292,-0.521C0.168,-0.521 0.068,-0.468 0.037,-0.362L0.188,-0.339C0.204,-0.388 0.245,-0.409 0.297,-0.409C0.335,-0.409 0.364,-0.394 0.364,-0.357C0.364,-0.333 0.342,-0.326 0.315,-0.32L0.228,-0.299C0.142,-0.279 0.035,-0.247 0.035,-0.13C0.035,-0.025 0.123,0.01 0.203,0.01C0.266,0.01 0.335,-0.012 0.37,-0.061L0.377,-0L0.533,-0L0.533,-0.014C0.523,-0.036 0.523,-0.062 0.523,-0.091L0.523,-0.314ZM0.251,-0.099C0.218,-0.099 0.193,-0.115 0.193,-0.147C0.193,-0.182 0.225,-0.196 0.253,-0.202L0.374,-0.236C0.367,-0.13 0.307,-0.099 0.251,-0.099Z" style="fill-rule:nonzero;"/>
                </g>
                <g transform="matrix(410,0,0,410,1440.65,534.86)">
                    <path d="M0.368,-0.521C0.304,-0.521 0.247,-0.499 0.217,-0.458L0.217,-0.75L0.059,-0.75L0.059,-0L0.208,-0L0.214,-0.055C0.243,-0.012 0.302,0.01 0.368,0.01C0.505,0.01 0.617,-0.086 0.617,-0.254C0.617,-0.422 0.505,-0.521 0.368,-0.521ZM0.334,-0.121C0.263,-0.121 0.21,-0.169 0.21,-0.254C0.21,-0.34 0.263,-0.391 0.334,-0.391C0.405,-0.391 0.459,-0.34 0.459,-0.254C0.459,-0.169 0.405,-0.121 0.334,-0.121Z" style="fill-rule:nonzero;"/>
                </g>
                <g transform="matrix(410,0,0,410,1703.66,534.86)">
                    <rect x="0.058" y="-0.75" width="0.159" height="0.75" style="fill-rule:nonzero;"/>
                </g>
                <g transform="matrix(410,0,0,410,1811.7,534.86)">
                    <path d="M0.57,-0.26C0.569,-0.441 0.457,-0.521 0.309,-0.521C0.146,-0.521 0.035,-0.422 0.035,-0.255C0.035,-0.089 0.143,0.01 0.315,0.01C0.434,0.01 0.529,-0.05 0.561,-0.157L0.416,-0.176C0.398,-0.134 0.362,-0.114 0.314,-0.114C0.25,-0.114 0.199,-0.151 0.192,-0.224L0.568,-0.224L0.57,-0.26ZM0.31,-0.405C0.362,-0.405 0.402,-0.376 0.413,-0.325L0.197,-0.325C0.211,-0.379 0.251,-0.405 0.31,-0.405Z" style="fill-rule:nonzero;"/>
                </g>
                <g transform="matrix(410,0,0,410,2056.06,534.86)">
                    <path d="M0.464,-0.382C0.521,-0.408 0.551,-0.459 0.551,-0.531C0.551,-0.651 0.465,-0.713 0.302,-0.713L0.064,-0.713L0.064,-0L0.329,-0C0.404,-0 0.596,-0.008 0.596,-0.203C0.596,-0.302 0.546,-0.355 0.464,-0.382ZM0.386,-0.503C0.386,-0.453 0.357,-0.429 0.298,-0.429L0.229,-0.429L0.229,-0.577L0.298,-0.577C0.356,-0.577 0.386,-0.552 0.386,-0.503ZM0.229,-0.14L0.229,-0.304L0.331,-0.304C0.4,-0.304 0.431,-0.278 0.431,-0.222C0.431,-0.165 0.4,-0.14 0.331,-0.14L0.229,-0.14Z" style="fill-rule:nonzero;"/>
                </g>
                <g transform="matrix(410,0,0,410,2310.46,534.86)">
                    <path d="M0.412,-0.239C0.411,-0.144 0.357,-0.116 0.3,-0.116C0.251,-0.116 0.211,-0.14 0.211,-0.202L0.211,-0.511L0.053,-0.511L0.053,-0.168C0.053,-0.056 0.118,0.01 0.249,0.01C0.32,0.01 0.377,-0.016 0.414,-0.059L0.421,-0L0.57,-0L0.57,-0.511L0.412,-0.511L0.412,-0.239Z" style="fill-rule:nonzero;"/>
                </g>
                <g transform="matrix(410,0,0,410,2564.05,534.86)">
                    <path d="M0.137,-0.575C0.185,-0.575 0.225,-0.614 0.225,-0.663C0.225,-0.712 0.185,-0.751 0.137,-0.751C0.088,-0.751 0.048,-0.712 0.048,-0.663C0.048,-0.614 0.088,-0.575 0.137,-0.575ZM0.215,-0L0.215,-0.511L0.057,-0.511L0.057,-0L0.215,-0Z" style="fill-rule:nonzero;"/>
                </g>
                <g transform="matrix(410,0,0,410,2671.26,534.86)">
                    <rect x="0.058" y="-0.75" width="0.159" height="0.75" style="fill-rule:nonzero;"/>
                </g>
                <g transform="matrix(410,0,0,410,2779.3,534.86)">
                    <path d="M0.435,-0.458C0.405,-0.499 0.348,-0.521 0.284,-0.521C0.147,-0.521 0.035,-0.422 0.035,-0.254C0.035,-0.086 0.147,0.01 0.284,0.01C0.35,0.01 0.409,-0.012 0.438,-0.055L0.444,-0L0.593,-0L0.593,-0.75L0.435,-0.75L0.435,-0.458ZM0.318,-0.121C0.247,-0.121 0.193,-0.169 0.193,-0.254C0.193,-0.34 0.247,-0.391 0.318,-0.391C0.389,-0.391 0.442,-0.34 0.442,-0.254C0.442,-0.169 0.389,-0.121 0.318,-0.121Z" style="fill-rule:nonzero;"/>
                </g>
            </g>
        </g>
    </g>
</svg>
